<?xml version="1.0" encoding="UTF-8" standalone="no"?><!DOCTYPE svg PUBLIC "-//W3C//DTD SVG 1.1//EN" "http://www.w3.org/Graphics/SVG/1.1/DTD/svg11.dtd"><svg width="100%" height="100%" class="primary__fill" viewBox="0 0 400 400" version="1.1" xmlns="http://www.w3.org/2000/svg" xmlns:xlink="http://www.w3.org/1999/xlink" xml:space="preserve" xmlns:serif="http://www.serif.com/" style="fill-rule:evenodd;clip-rule:evenodd;stroke-linejoin:round;stroke-miterlimit:1.41421;"><g id="Reading-types" serif:id="Reading types"><rect id="Slider" x="0" y="0" width="400" height="400" style="fill:none;"/><clipPath id="_clip1"><rect id="Slider1" serif:id="Slider" x="0" y="0" width="400" height="400"/></clipPath><g clip-path="url(#_clip1)"><path d="M129.203,225.264c2.648,-10.847 12.412,-18.907 24.038,-18.907c11.626,0 21.39,8.06 24.037,18.907l141.826,0c3.254,0 5.896,2.651 5.896,5.915c0,3.264 -2.642,5.914 -5.896,5.914l-141.826,0c-2.647,10.848 -12.411,18.907 -24.037,18.907c-11.626,0 -21.39,-8.059 -24.038,-18.907l-48.307,0c-3.254,0 -5.896,-2.65 -5.896,-5.914c0,-3.264 2.642,-5.915 5.896,-5.915l48.307,0Zm101.167,-62.357c2.648,-10.848 12.412,-18.907 24.038,-18.907c11.626,0 21.39,8.059 24.038,18.907l40.658,0c3.254,0 5.896,2.65 5.896,5.914c0,3.264 -2.642,5.915 -5.896,5.915l-40.658,0c-2.648,10.847 -12.412,18.907 -24.038,18.907c-11.626,0 -21.39,-8.06 -24.038,-18.907l-149.474,0c-3.254,0 -5.896,-2.651 -5.896,-5.915c0,-3.264 2.642,-5.914 5.896,-5.914l149.474,0Z"/></g></g></svg>