<?xml version="1.0" encoding="UTF-8" standalone="no"?><!DOCTYPE svg PUBLIC "-//W3C//DTD SVG 1.1//EN" "http://www.w3.org/Graphics/SVG/1.1/DTD/svg11.dtd"><svg width="100%" height="100%" class="primary__fill" viewBox="0 0 400 400" version="1.1" xmlns="http://www.w3.org/2000/svg" xmlns:xlink="http://www.w3.org/1999/xlink" xml:space="preserve" xmlns:serif="http://www.serif.com/" style="fill-rule:evenodd;clip-rule:evenodd;stroke-linejoin:round;stroke-miterlimit:1.41421;"><g id="Reading-types" serif:id="Reading types"><rect id="Pressure" x="0" y="0" width="400" height="400" style="fill:none;"/><clipPath id="_clip1"><rect id="Pressure1" serif:id="Pressure" x="0" y="0" width="400" height="400"/></clipPath><g clip-path="url(#_clip1)"><path d="M182.938,262.622c-0.205,-0.036 -0.411,-0.075 -0.616,-0.113c-6.424,-1.206 -12.72,-3.078 -18.756,-5.578c-5.399,-2.237 -10.587,-4.973 -15.481,-8.16c-5.014,-3.265 -9.717,-7.002 -14.029,-11.144c-4.103,-3.941 -7.851,-8.248 -11.184,-12.853c-3.296,-4.556 -6.186,-9.403 -8.619,-14.468c-2.172,-4.518 -3.981,-9.21 -5.402,-14.015c-1.335,-4.517 -2.328,-9.134 -2.97,-13.799c-0.588,-4.28 -0.881,-8.599 -0.881,-12.918c0,-5.999 0.566,-11.998 1.701,-17.889c0.848,-4.402 2.013,-8.744 3.484,-12.98c1.48,-4.265 3.27,-8.422 5.349,-12.431c2.453,-4.729 5.309,-9.25 8.524,-13.503c3.256,-4.307 6.882,-8.337 10.823,-12.034c3.876,-3.635 8.058,-6.948 12.488,-9.89c4.381,-2.909 9.004,-5.456 13.809,-7.603c3.71,-1.657 7.529,-3.076 11.424,-4.244c3.953,-1.185 7.985,-2.111 12.062,-2.771c3.261,-0.528 6.55,-0.886 9.849,-1.074c1.114,-0.063 2.229,-0.107 3.344,-0.131c0.612,-0.014 1.224,-0.021 1.836,-0.024c0.205,0 0.409,0 0.614,0c0.612,0.003 1.224,0.01 1.836,0.024c1.115,0.024 2.23,0.068 3.344,0.131c3.299,0.188 6.588,0.546 9.849,1.074c4.077,0.66 8.109,1.586 12.062,2.771c3.895,1.168 7.714,2.587 11.424,4.244c4.892,2.186 9.596,4.786 14.047,7.761c4.342,2.902 8.443,6.162 12.25,9.732c4.08,3.827 7.821,8.011 11.165,12.489c3.191,4.273 6.02,8.813 8.444,13.557c1.968,3.852 3.669,7.838 5.087,11.922c1.503,4.329 2.687,8.768 3.539,13.27c1.117,5.898 1.665,11.902 1.646,17.904c-0.014,4.217 -0.306,8.434 -0.881,12.613c-0.655,4.761 -1.676,9.472 -3.054,14.078c-1.408,4.708 -3.188,9.305 -5.318,13.736c-2.474,5.151 -5.421,10.076 -8.787,14.698c-3.291,4.519 -6.982,8.748 -11.016,12.623c-4.312,4.142 -9.015,7.879 -14.029,11.144c-4.894,3.187 -10.082,5.923 -15.481,8.16c-6.036,2.5 -12.332,4.372 -18.756,5.578c-0.205,0.038 -0.411,0.077 -0.616,0.113l0,30.269l23.138,0l0.417,0.015c0.369,0.039 0.463,0.039 0.825,0.118c0.408,0.088 0.806,0.22 1.186,0.393c0.759,0.345 1.441,0.853 1.988,1.481c0.547,0.629 0.955,1.373 1.191,2.171c0.117,0.399 0.192,0.81 0.221,1.224c0.01,0.138 0.01,0.277 0.015,0.415l0,14.658l28.281,0l1.512,0.199c1.238,0.51 1.647,0.537 2.62,1.505c0.359,0.358 0.674,0.766 0.928,1.205c0.254,0.438 0.452,0.914 0.584,1.403c0.132,0.488 0.199,0.999 0.199,1.505c0,1.021 -0.27,2.024 -0.783,2.909c-0.254,0.438 -0.569,0.847 -0.928,1.204c-0.726,0.722 -1.629,1.241 -2.62,1.506c-0.491,0.131 -1.008,0.132 -1.512,0.198l-148.648,0c-1.328,-0.174 -1.73,-0.094 -2.921,-0.779c-0.441,-0.254 -0.851,-0.567 -1.211,-0.925c-0.359,-0.357 -0.674,-0.766 -0.928,-1.204c-0.513,-0.885 -0.783,-1.888 -0.783,-2.909c0,-0.506 0.067,-1.017 0.199,-1.505c0.131,-0.489 0.33,-0.965 0.584,-1.403c0.254,-0.439 0.569,-0.847 0.928,-1.205c0.726,-0.722 1.629,-1.241 2.62,-1.505c0.491,-0.132 1.008,-0.133 1.512,-0.199l28.281,0l0,-14.658c0.013,-0.369 0.006,-0.462 0.059,-0.828c0.059,-0.411 0.163,-0.816 0.309,-1.205c0.341,-0.909 0.911,-1.728 1.648,-2.363c0.631,-0.545 1.379,-0.951 2.18,-1.186c0.401,-0.116 0.814,-0.19 1.23,-0.22c0.139,-0.01 0.278,-0.01 0.417,-0.015l23.138,0l0,-30.269Zm51.419,41.903l-68.714,0l0,8.841l68.714,0l0,-8.841Zm-39.733,-40.528l0,28.894l10.752,0l0,-28.894c-1.79,0.101 -3.583,0.15 -5.376,0.15c-1.793,0 -3.586,-0.049 -5.376,-0.15Zm5.106,-177.363c-1.518,0.007 -3.035,0.05 -4.551,0.136c-2.98,0.17 -5.952,0.497 -8.897,0.984c-3.484,0.575 -6.93,1.372 -10.311,2.386c-3.412,1.023 -6.757,2.266 -10.009,3.719c-4.136,1.847 -8.12,4.034 -11.899,6.528c-3.896,2.57 -7.574,5.466 -10.986,8.647c-3.408,3.178 -6.55,6.639 -9.38,10.336c-2.893,3.779 -5.46,7.803 -7.663,12.018c-1.872,3.582 -3.479,7.3 -4.804,11.117c-1.26,3.63 -2.264,7.348 -3.003,11.118c-1.029,5.251 -1.541,10.6 -1.541,15.951c0,3.878 0.268,7.757 0.809,11.598c0.587,4.169 1.494,8.292 2.713,12.323c1.247,4.12 2.819,8.142 4.696,12.018c2.184,4.51 4.78,8.82 7.744,12.864c2.901,3.958 6.152,7.66 9.703,11.051c3.735,3.566 7.801,6.787 12.131,9.608c4.291,2.794 8.84,5.193 13.573,7.154c5.288,2.19 10.804,3.83 16.432,4.887c5.111,0.959 10.312,1.437 15.513,1.437c5.201,0 10.402,-0.478 15.513,-1.437c5.628,-1.057 11.144,-2.697 16.432,-4.887c4.733,-1.961 9.282,-4.36 13.573,-7.154c4.33,-2.821 8.396,-6.042 12.131,-9.608c3.612,-3.449 6.913,-7.219 9.85,-11.252c2.903,-3.986 5.449,-8.229 7.597,-12.663c1.84,-3.8 3.387,-7.739 4.621,-11.774c1.257,-4.108 2.189,-8.314 2.788,-12.567c0.54,-3.841 0.809,-7.72 0.809,-11.598c0,-5.351 -0.512,-10.7 -1.541,-15.951c-0.739,-3.77 -1.743,-7.488 -3.003,-11.118c-1.325,-3.817 -2.933,-7.535 -4.804,-11.117c-2.049,-3.919 -4.412,-7.675 -7.06,-11.221c-2.936,-3.931 -6.22,-7.603 -9.801,-10.962c-3.524,-3.305 -7.335,-6.306 -11.378,-8.956c-3.716,-2.437 -7.629,-4.576 -11.689,-6.39c-3.252,-1.453 -6.597,-2.696 -10.009,-3.719c-3.381,-1.014 -6.827,-1.811 -10.311,-2.386c-2.945,-0.487 -5.917,-0.814 -8.897,-0.984c-1.516,-0.086 -3.033,-0.129 -4.551,-0.136c-0.18,0 -0.36,0 -0.54,0Zm0.281,10.361l0.224,0.001c1.326,0.006 2.651,0.043 3.975,0.119c2.531,0.143 5.056,0.418 7.558,0.823c6.211,1.006 12.286,2.82 18.027,5.385c3.553,1.588 6.978,3.46 10.231,5.593c3.535,2.317 6.868,4.941 9.949,7.831c3.183,2.986 6.098,6.256 8.697,9.758c2.352,3.169 4.444,6.527 6.249,10.033c1.621,3.149 3.01,6.416 4.15,9.767c1.061,3.118 1.906,6.309 2.529,9.541c1.498,7.776 1.708,15.797 0.629,23.64c-0.502,3.654 -1.286,7.271 -2.343,10.805c-1.081,3.614 -2.447,7.143 -4.082,10.543c-1.867,3.887 -4.085,7.607 -6.615,11.103c-2.557,3.534 -5.433,6.839 -8.582,9.863c-3.308,3.178 -6.917,6.045 -10.765,8.551c-3.755,2.446 -7.737,4.546 -11.881,6.262c-4.562,1.89 -9.319,3.313 -14.172,4.239c-4.542,0.868 -9.165,1.3 -13.789,1.3c-4.624,0 -9.247,-0.432 -13.789,-1.3c-4.853,-0.926 -9.61,-2.349 -14.172,-4.239c-4.144,-1.716 -8.126,-3.816 -11.881,-6.262c-3.848,-2.506 -7.457,-5.373 -10.765,-8.551c-3.149,-3.024 -6.025,-6.329 -8.582,-9.863c-2.53,-3.496 -4.747,-7.216 -6.615,-11.103c-1.667,-3.468 -3.055,-7.069 -4.146,-10.757c-1.025,-3.467 -1.787,-7.011 -2.279,-10.591c-1.069,-7.769 -0.873,-15.712 0.586,-23.417c0.627,-3.309 1.487,-6.575 2.572,-9.764c1.14,-3.351 2.529,-6.618 4.15,-9.767c1.838,-3.571 3.974,-6.988 6.379,-10.208c2.523,-3.378 5.34,-6.538 8.409,-9.434c2.965,-2.798 6.166,-5.35 9.559,-7.617c3.416,-2.284 7.025,-4.279 10.779,-5.956c5.741,-2.565 11.816,-4.379 18.027,-5.385c2.502,-0.405 5.026,-0.68 7.558,-0.823c1.324,-0.076 2.649,-0.113 3.975,-0.119l0.221,-0.001l0.025,0Zm5.832,11.908l0,11.105c-0.001,0.066 -0.001,0.133 -0.003,0.199c-0.007,0.198 -0.024,0.396 -0.051,0.593c-0.091,0.656 -0.295,1.296 -0.601,1.884c-0.245,0.471 -0.555,0.907 -0.918,1.294c-0.59,0.63 -1.321,1.125 -2.126,1.441c-0.806,0.316 -1.679,0.451 -2.543,0.392c-0.597,-0.041 -1.188,-0.173 -1.745,-0.392c-0.68,-0.267 -1.31,-0.663 -1.844,-1.16c-0.535,-0.497 -0.974,-1.095 -1.289,-1.753c-0.257,-0.538 -0.43,-1.116 -0.512,-1.706c-0.027,-0.197 -0.044,-0.395 -0.051,-0.593c-0.002,-0.066 -0.002,-0.133 -0.003,-0.199l0,-11.105c-1.419,0.134 -2.833,0.317 -4.238,0.549c-5.143,0.849 -10.173,2.36 -14.929,4.485c-3.151,1.408 -6.182,3.083 -9.05,5c-2.735,1.829 -5.322,3.877 -7.729,6.117l9.881,5.68c0.053,0.031 0.107,0.062 0.159,0.094c0.158,0.098 0.31,0.203 0.458,0.314c0.541,0.41 1.009,0.915 1.377,1.484c0.301,0.466 0.534,0.975 0.691,1.506c0.226,0.768 0.291,1.581 0.189,2.375c-0.109,0.856 -0.412,1.683 -0.88,2.409c-0.334,0.518 -0.751,0.982 -1.231,1.37c-0.576,0.466 -1.241,0.82 -1.95,1.04c-0.708,0.219 -1.458,0.302 -2.198,0.244c-0.616,-0.049 -1.223,-0.196 -1.794,-0.434c-0.171,-0.071 -0.339,-0.151 -0.502,-0.238c-0.054,-0.028 -0.108,-0.059 -0.162,-0.089l-11.918,-6.851c-1.779,2.452 -3.374,5.035 -4.768,7.722c-1.31,2.526 -2.441,5.144 -3.382,7.827c-0.955,2.723 -1.714,5.514 -2.268,8.344c-0.383,1.953 -0.668,3.925 -0.857,5.906l11.155,0c0.066,0.001 0.133,0.002 0.2,0.003c0.066,0.004 0.132,0.006 0.199,0.01c0.199,0.014 0.397,0.037 0.594,0.071c0.59,0.101 1.164,0.294 1.695,0.568c0.65,0.335 1.235,0.793 1.716,1.342c0.481,0.549 0.857,1.188 1.101,1.875c0.201,0.561 0.314,1.153 0.335,1.749c0.029,0.861 -0.136,1.726 -0.481,2.516c-0.318,0.729 -0.787,1.391 -1.371,1.934c-0.389,0.361 -0.827,0.67 -1.3,0.913c-0.591,0.305 -1.233,0.508 -1.892,0.598c-0.198,0.027 -0.397,0.044 -0.596,0.051c-0.067,0.003 -0.134,0.003 -0.2,0.003l-11.155,0c0.086,0.905 0.192,1.808 0.319,2.708c0.431,3.062 1.098,6.092 1.993,9.053c0.916,3.027 2.071,5.982 3.45,8.829c1.605,3.314 3.513,6.482 5.691,9.454c2.131,2.908 4.521,5.629 7.131,8.121c2.744,2.62 5.732,4.988 8.915,7.061c3.153,2.052 6.495,3.816 9.973,5.256c3.826,1.585 7.814,2.778 11.884,3.555c3.817,0.729 7.702,1.091 11.588,1.091c3.886,0 7.771,-0.362 11.588,-1.091c4.07,-0.777 8.058,-1.97 11.884,-3.555c3.478,-1.44 6.82,-3.204 9.973,-5.256c3.183,-2.073 6.171,-4.441 8.915,-7.061c2.61,-2.492 5,-5.213 7.131,-8.121c2.178,-2.972 4.086,-6.14 5.691,-9.453c1.407,-2.905 2.58,-5.92 3.504,-9.009c0.868,-2.905 1.516,-5.874 1.939,-8.874c0.127,-0.9 0.233,-1.803 0.319,-2.708l-11.155,0c-0.066,0 -0.133,0 -0.2,-0.003c-0.199,-0.007 -0.398,-0.024 -0.596,-0.051c-0.659,-0.09 -1.301,-0.293 -1.892,-0.598c-0.769,-0.396 -1.445,-0.963 -1.968,-1.65c-0.523,-0.686 -0.889,-1.487 -1.065,-2.331c-0.108,-0.518 -0.145,-1.052 -0.108,-1.58c0.041,-0.595 0.174,-1.183 0.394,-1.737c0.268,-0.678 0.665,-1.304 1.165,-1.837c0.499,-0.532 1.099,-0.97 1.76,-1.282c0.541,-0.257 1.121,-0.429 1.714,-0.51c0.198,-0.027 0.397,-0.044 0.596,-0.051c0.067,-0.002 0.134,-0.002 0.2,-0.003l11.155,0c-0.189,-1.981 -0.474,-3.952 -0.857,-5.906c-0.554,-2.83 -1.313,-5.621 -2.268,-8.344c-0.961,-2.742 -2.121,-5.414 -3.468,-7.991c-1.342,-2.569 -2.87,-5.043 -4.566,-7.397l-11.639,6.69c-0.054,0.03 -0.107,0.061 -0.162,0.089c-0.163,0.087 -0.331,0.167 -0.502,0.238c-0.57,0.238 -1.178,0.385 -1.794,0.434c-0.74,0.058 -1.49,-0.025 -2.198,-0.244c-0.708,-0.22 -1.374,-0.574 -1.95,-1.04c-0.479,-0.388 -0.897,-0.852 -1.231,-1.37c-0.3,-0.466 -0.534,-0.974 -0.691,-1.506c-0.226,-0.768 -0.291,-1.581 -0.189,-2.375c0.109,-0.855 0.412,-1.683 0.88,-2.409c0.368,-0.569 0.836,-1.074 1.377,-1.484c0.148,-0.111 0.301,-0.216 0.458,-0.314c0.053,-0.032 0.106,-0.063 0.159,-0.094l9.637,-5.539l-0.113,-0.106c-2.552,-2.38 -5.308,-4.543 -8.228,-6.457c-2.731,-1.79 -5.606,-3.362 -8.589,-4.695c-4.756,-2.125 -9.786,-3.636 -14.929,-4.485c-1.405,-0.232 -2.819,-0.415 -4.238,-0.549Zm-13.23,63.954l1.36,-0.49l0,-18.26c0.025,-1.052 0.125,-1.369 0.331,-1.962c0.823,-2.365 2.767,-3.968 5.696,-4.038c0.096,0.003 0.191,0.005 0.287,0.007c1.055,0.075 1.368,0.19 1.953,0.423c2.242,0.893 3.72,2.752 3.787,5.57l0,18.186l1.36,0.564c6.131,2.794 10.395,8.958 10.395,16.104c0,9.77 -7.968,17.702 -17.782,17.702c-9.814,0 -17.782,-7.932 -17.782,-17.702c0,-7.146 4.264,-13.31 10.395,-16.104Z"/></g></g></svg>