<?xml version="1.0" encoding="UTF-8" standalone="no"?><!DOCTYPE svg PUBLIC "-//W3C//DTD SVG 1.1//EN" "http://www.w3.org/Graphics/SVG/1.1/DTD/svg11.dtd"><svg width="100%" height="100%" class="primary__fill" viewBox="0 0 400 400" version="1.1" xmlns="http://www.w3.org/2000/svg" xmlns:xlink="http://www.w3.org/1999/xlink" xml:space="preserve" xmlns:serif="http://www.serif.com/" style="fill-rule:evenodd;clip-rule:evenodd;stroke-linejoin:round;stroke-miterlimit:1.41421;"><g id="Reading-types" serif:id="Reading types"><rect id="String" x="0" y="0" width="400" height="400" style="fill:none;"/><clipPath id="_clip1"><rect id="String1" serif:id="String" x="0" y="0" width="400" height="400"/></clipPath><g clip-path="url(#_clip1)"><path d="M271.061,75.113c1.958,0.018 3.914,0.129 5.86,0.352c3.905,0.447 7.76,1.321 11.475,2.605c7.532,2.604 14.454,6.892 20.157,12.459c2.946,2.88 5.567,6.092 7.79,9.56c2.25,3.506 4.093,7.272 5.478,11.202c1.343,3.811 2.255,7.773 2.714,11.788c0.223,1.946 0.334,3.902 0.352,5.86c0.151,47.374 0.151,94.748 0,142.122c-0.018,1.958 -0.129,3.914 -0.352,5.86c-0.447,3.905 -1.321,7.76 -2.605,11.475c-2.604,7.532 -6.892,14.454 -12.459,20.157c-3.031,3.102 -6.433,5.843 -10.113,8.14c-3.347,2.092 -6.925,3.815 -10.649,5.128c-3.811,1.343 -7.773,2.255 -11.788,2.714c-1.946,0.223 -3.902,0.334 -5.86,0.352c-47.374,0.151 -94.748,0.151 -142.122,0c-1.958,-0.018 -3.914,-0.129 -5.86,-0.352c-4.015,-0.459 -7.977,-1.371 -11.788,-2.714c-3.93,-1.385 -7.696,-3.228 -11.202,-5.478c-3.468,-2.223 -6.68,-4.844 -9.56,-7.79c-5.567,-5.703 -9.855,-12.625 -12.459,-20.157c-1.284,-3.715 -2.158,-7.57 -2.605,-11.475c-0.223,-1.946 -0.334,-3.902 -0.352,-5.86c-0.151,-47.374 -0.151,-94.748 0,-142.122c0.02,-2.073 0.143,-4.141 0.393,-6.201c0.469,-3.898 1.368,-7.743 2.673,-11.447c1.35,-3.826 3.131,-7.499 5.302,-10.927c2.262,-3.573 4.941,-6.88 7.966,-9.835c5.703,-5.567 12.625,-9.855 20.157,-12.459c3.715,-1.284 7.57,-2.158 11.475,-2.605c1.946,-0.223 3.902,-0.334 5.86,-0.352c47.374,-0.151 94.748,-0.151 142.122,0Zm-141.762,14.071c-1.544,0.005 -3.085,0.086 -4.621,0.262c-2.965,0.339 -5.892,1.011 -8.708,2.005c-5.642,1.988 -10.806,5.258 -15.033,9.486c-4.228,4.227 -7.498,9.391 -9.486,15.033c-0.966,2.735 -1.627,5.577 -1.975,8.457c-0.185,1.528 -0.277,3.064 -0.292,4.601c-0.15,47.402 -0.447,94.805 0.003,142.202c0.025,1.538 0.125,3.07 0.319,4.593c0.367,2.876 1.046,5.711 2.028,8.44c1.94,5.398 5.057,10.353 9.064,14.457c4.29,4.394 9.579,7.787 15.372,9.829c2.816,0.992 5.743,1.666 8.708,2.005c1.446,0.166 2.897,0.248 4.35,0.262c47.402,0.15 94.805,0.449 142.202,-0.003c1.538,-0.025 3.07,-0.125 4.593,-0.32c2.876,-0.366 5.711,-1.045 8.44,-2.027c5.549,-1.994 10.631,-5.233 14.8,-9.403c4.228,-4.227 7.498,-9.391 9.486,-15.033c0.992,-2.816 1.666,-5.743 2.005,-8.708c0.166,-1.446 0.248,-2.897 0.262,-4.35c0.15,-47.402 0.449,-94.805 -0.003,-142.202c-0.025,-1.538 -0.125,-3.07 -0.32,-4.593c-0.366,-2.876 -1.045,-5.711 -2.027,-8.44c-2.049,-5.701 -5.41,-10.907 -9.746,-15.139c-4.162,-4.065 -9.201,-7.212 -14.69,-9.147c-2.735,-0.966 -5.577,-1.627 -8.457,-1.975c-1.528,-0.185 -3.064,-0.277 -4.601,-0.292c-47.224,-0.15 -94.447,0 -141.673,0Zm132.672,189.142l-55.695,0c-0.132,-0.003 -0.264,-0.003 -0.394,-0.012c-0.264,-0.014 -0.526,-0.044 -0.784,-0.088c-1.04,-0.176 -2.034,-0.588 -2.894,-1.198c-0.644,-0.457 -1.21,-1.024 -1.666,-1.668c-0.381,-0.536 -0.686,-1.125 -0.904,-1.746c-0.216,-0.621 -0.346,-1.274 -0.383,-1.93c-0.104,-1.85 0.543,-3.701 1.778,-5.083c0.614,-0.686 1.363,-1.251 2.193,-1.65c0.713,-0.343 1.482,-0.565 2.266,-0.653c0.348,-0.04 0.438,-0.035 0.788,-0.044l20.811,0l0,-128.508l-20.811,0c-0.132,-0.004 -0.264,-0.004 -0.394,-0.011c-0.264,-0.014 -0.526,-0.044 -0.784,-0.088c-1.04,-0.177 -2.034,-0.589 -2.894,-1.198c-0.644,-0.457 -1.21,-1.023 -1.666,-1.667c-1.073,-1.511 -1.509,-3.423 -1.199,-5.251c0.11,-0.647 0.313,-1.28 0.598,-1.873c0.285,-0.593 0.654,-1.145 1.092,-1.636c0.614,-0.688 1.363,-1.25 2.193,-1.652c0.713,-0.341 1.482,-0.562 2.266,-0.652c0.348,-0.039 0.438,-0.034 0.788,-0.044l55.695,0c0.132,0.003 0.262,0.009 0.394,0.012c0.132,0.011 0.264,0.018 0.394,0.032c0.262,0.03 0.521,0.074 0.777,0.134c1.028,0.234 1.999,0.701 2.822,1.358c0.617,0.492 1.15,1.088 1.571,1.757c0.35,0.557 0.621,1.164 0.804,1.796c0.474,1.651 0.323,3.453 -0.423,5c-0.285,0.593 -0.654,1.146 -1.092,1.636c-0.616,0.686 -1.363,1.251 -2.195,1.65c-0.711,0.343 -1.479,0.565 -2.264,0.653c-0.348,0.04 -0.438,0.035 -0.788,0.044l-20.812,0l0,128.508l20.812,0l0.394,0.011c0.35,0.03 0.438,0.03 0.785,0.088c0.779,0.132 1.533,0.397 2.225,0.779c0.805,0.445 1.523,1.05 2.096,1.771c0.412,0.514 0.748,1.085 0.999,1.694c0.254,0.609 0.419,1.251 0.493,1.905c0.192,1.708 -0.259,3.458 -1.254,4.858c-0.458,0.644 -1.022,1.211 -1.666,1.668c-0.86,0.61 -1.856,1.022 -2.893,1.198c-0.261,0.044 -0.521,0.074 -0.785,0.088c-0.13,0.009 -0.262,0.009 -0.394,0.012Zm-102.471,-112.695l0,74.499c-0.181,4.838 -7.889,7.715 -10.455,2.387c-0.327,-0.679 -0.495,-1.045 -0.545,-2.387l0,-74.499l-22.5,0c-4.74,-0.149 -7.979,-7.825 -2.342,-10.477c0.687,-0.323 1.069,-0.483 2.342,-0.523l27.708,0c0.223,-0.016 0.367,-0.01 0.488,0l27.804,0l0.345,0.01c1.268,0.12 1.639,0.304 2.304,0.67c4.023,2.211 3.41,10.129 -2.649,10.32l-22.5,0Z"/></g></g></svg>