<?xml version="1.0" encoding="UTF-8" standalone="no"?><!DOCTYPE svg PUBLIC "-//W3C//DTD SVG 1.1//EN" "http://www.w3.org/Graphics/SVG/1.1/DTD/svg11.dtd"><svg width="100%" height="100%" class="primary__fill" viewBox="0 0 400 400" version="1.1" xmlns="http://www.w3.org/2000/svg" xmlns:xlink="http://www.w3.org/1999/xlink" xml:space="preserve" xmlns:serif="http://www.serif.com/" style="fill-rule:evenodd;clip-rule:evenodd;stroke-linejoin:round;stroke-miterlimit:1.41421;"><g id="Reading-types" serif:id="Reading types"><rect id="Humidity" x="0" y="0" width="400" height="400" style="fill:none;"/><clipPath id="_clip1"><rect id="Humidity1" serif:id="Humidity" x="0" y="0" width="400" height="400"/></clipPath><g clip-path="url(#_clip1)"><path d="M271.024,220.248c0.801,2.956 1.522,5.934 2.128,8.937c0.548,2.719 1.004,5.458 1.321,8.215c0.239,2.072 0.399,4.154 0.452,6.239c0.03,1.175 0.023,2.35 -0.006,3.525c-0.046,1.784 -0.149,3.566 -0.312,5.344c-0.441,4.807 -1.315,9.573 -2.614,14.221c-1.335,4.78 -3.119,9.432 -5.318,13.877c-2.169,4.387 -4.743,8.571 -7.674,12.486c-2.867,3.83 -6.076,7.4 -9.576,10.656c-3.504,3.261 -7.299,6.205 -11.326,8.784c-3.653,2.339 -7.495,4.378 -11.478,6.087c-3.738,1.605 -7.599,2.917 -11.537,3.925c-3.613,0.923 -7.291,1.588 -10.997,1.99c-3.708,0.404 -7.444,0.544 -11.172,0.425c-3.855,-0.123 -7.701,-0.525 -11.497,-1.208c-3.954,-0.711 -7.854,-1.725 -11.655,-3.032c-4.195,-1.443 -8.269,-3.243 -12.165,-5.372c-4.065,-2.221 -7.936,-4.8 -11.556,-7.696c-4.042,-3.234 -7.77,-6.861 -11.116,-10.815c-3.099,-3.66 -5.869,-7.601 -8.266,-11.76c-2.87,-4.98 -5.201,-10.271 -6.936,-15.755c-1.626,-5.138 -2.728,-10.443 -3.287,-15.806c-0.202,-1.941 -0.334,-3.888 -0.396,-5.838c-0.035,-1.128 -0.051,-2.256 -0.035,-3.383c0.015,-0.993 0.054,-1.986 0.116,-2.976c0.132,-2.13 0.364,-4.254 0.668,-6.366c0.332,-2.305 0.75,-4.597 1.232,-6.875c0.538,-2.543 1.155,-5.069 1.831,-7.578c0.677,-2.512 1.412,-5.008 2.194,-7.489c0.992,-3.152 2.057,-6.279 3.178,-9.386c1.22,-3.384 2.507,-6.744 3.843,-10.083c2.909,-7.266 6.054,-14.436 9.347,-21.533c4.082,-8.795 8.396,-17.48 12.864,-26.081c4.811,-9.262 9.805,-18.428 14.937,-27.514c2.802,-4.961 5.646,-9.899 8.529,-14.812c1.785,-3.042 3.584,-6.075 5.4,-9.097c2.082,-3.465 4.182,-6.92 6.308,-10.359c1.303,-2.107 2.613,-4.21 3.943,-6.3l0.056,-0.087c0.318,-0.383 0.59,-0.808 0.953,-1.148c0.732,-0.685 1.623,-1.175 2.591,-1.423c0.481,-0.124 0.984,-0.125 1.477,-0.187l1.476,0.187c1.217,0.481 1.61,0.504 2.591,1.423c0.363,0.34 0.639,0.763 0.953,1.148c0.022,0.027 0.038,0.058 0.056,0.087c0.054,0.085 0.109,0.17 0.162,0.255c0.089,0.139 0.177,0.278 0.264,0.416c0.67,1.058 1.336,2.12 1.998,3.183c2.437,3.908 4.838,7.838 7.214,11.784c5.394,8.96 10.656,18.002 15.778,27.124l0.397,0.708c3.247,-5.639 6.617,-11.205 10.102,-16.695c0,0 2.082,-2.459 4.584,-2.725c0,0 0.427,-0.002 0.723,-0.001c1.351,0.171 2.802,0.427 4.358,2.398c0,0 0.549,0.823 0.959,1.475c10.671,17.036 20.57,34.508 28.524,53.164c4.693,11.01 9.143,22.59 8.28,34.122c-0.767,10.244 -5.553,19.957 -12.868,27.195Zm-51.493,-86.624c-3.117,-5.666 -6.294,-11.3 -9.523,-16.902c-4.666,-8.097 -9.441,-16.129 -14.326,-24.094l-0.209,-0.341l-0.21,0.341c-4.885,7.965 -9.66,15.997 -14.326,24.094c-4.325,7.504 -8.557,15.063 -12.677,22.682c-4.239,7.84 -8.362,15.743 -12.325,23.726c-3.532,7.115 -6.938,14.294 -10.16,21.557c-2.489,5.613 -4.869,11.277 -7.082,17.007c-1.998,5.17 -3.862,10.394 -5.505,15.689c-0.717,2.308 -1.391,4.629 -2.007,6.966c-0.545,2.062 -1.046,4.137 -1.487,6.224c-0.406,1.919 -0.763,3.85 -1.05,5.791c-0.252,1.707 -0.452,3.423 -0.575,5.145c-0.062,0.855 -0.104,1.711 -0.124,2.567c-0.019,0.855 -0.013,1.71 0.005,2.565c0.031,1.376 0.102,2.75 0.215,4.121c0.467,5.687 1.649,11.312 3.52,16.699c1.307,3.766 2.948,7.414 4.895,10.889c2.063,3.681 4.468,7.167 7.172,10.401c2.653,3.173 5.593,6.103 8.773,8.742c2.98,2.472 6.169,4.689 9.524,6.615c3.085,1.772 6.309,3.298 9.634,4.558c2.981,1.13 6.043,2.046 9.154,2.737c6.145,1.368 12.479,1.857 18.76,1.476c3.186,-0.193 6.358,-0.611 9.484,-1.256c3.464,-0.713 6.872,-1.703 10.182,-2.957c3.197,-1.212 6.301,-2.669 9.278,-4.355c3.132,-1.773 6.121,-3.798 8.933,-6.048c2.75,-2.2 5.331,-4.615 7.71,-7.216c2.566,-2.804 4.899,-5.824 6.964,-9.019c2.452,-3.792 4.526,-7.832 6.178,-12.04c1.527,-3.89 2.692,-7.924 3.476,-12.031c0.589,-3.088 0.963,-6.216 1.122,-9.355c0.036,-0.726 0.061,-1.453 0.075,-2.18c0.012,-0.609 0.016,-1.218 0.01,-1.827c-0.008,-0.662 -0.03,-1.323 -0.064,-1.984c-0.098,-1.886 -0.294,-3.765 -0.556,-5.634c-0.285,-2.035 -0.648,-4.059 -1.067,-6.071c-0.211,-1.012 -0.437,-2.022 -0.674,-3.028c-4.476,2.359 -9.407,3.936 -14.619,4.502c-16.504,1.794 -33.644,-6.835 -41.925,-21.904c-4.522,-8.228 -6.242,-18.001 -4.688,-27.305c2.288,-13.7 8.479,-26.607 14.659,-38.985c1.694,-3.394 3.433,-6.765 5.216,-10.111l0.24,-0.451Zm-70.069,92.519c1.318,0.101 1.672,0.256 2.349,0.561c3.046,1.374 4.282,5.143 3.304,8.551c-1.944,6.911 -1.81,14.39 0.376,21.327c6.023,19.119 25.877,33.717 46.033,31.099c3.133,-0.407 6.206,-1.257 9.117,-2.484c0,0 2.467,-0.803 4.36,-0.226c3.934,1.198 5.902,6.781 3.178,10.229c-1.019,1.289 -2.576,1.987 -4.164,2.594c-18.017,6.887 -39.545,1.433 -54.231,-11.843c-14.528,-13.133 -22.592,-34.018 -17.198,-53.76c0.837,-3.065 2.963,-5.78 6.067,-6.034c0.269,-0.021 0.539,-0.018 0.809,-0.014Zm91.799,-106.972c-9.881,16.473 -19.29,33.285 -26.022,51.16c-2.685,7.128 -5.275,14.511 -4.615,22.186c1.132,13.148 11.502,25.003 24.486,27.709c8.331,1.737 17.36,-0.16 24.291,-5.162c9.156,-6.607 14.417,-18.411 12.471,-29.988c-1.542,-9.171 -5.296,-17.908 -9.204,-26.485c-6.129,-13.451 -13.302,-26.39 -20.878,-39.047c0,0 -0.183,-0.948 -0.529,-0.373Zm-10.692,54.667c4.135,0.242 7.309,4.836 5.697,8.962c-0.038,0.097 -0.075,0.195 -0.112,0.292c-0.225,0.604 -0.431,1.217 -0.607,1.839c-0.108,0.388 -0.206,0.779 -0.29,1.173c-0.066,0.308 -0.123,0.619 -0.171,0.931c-0.415,2.718 0.045,5.819 2.19,7.772c1.917,1.744 4.992,2.984 7.155,1.625c0.351,-0.221 0.337,-0.374 0.485,-0.555c0.153,-0.187 0.317,-0.366 0.491,-0.534c2.712,-2.637 7.776,-2.093 9.863,1.098c2.709,4.143 -0.815,10.15 -6.809,12.345c-8.601,3.15 -19.334,-1.236 -23.873,-9.492c-3.421,-6.225 -3.064,-14.023 -0.432,-20.933c0.929,-2.436 3.106,-4.321 5.691,-4.511c0.468,-0.034 0.575,-0.015 0.722,-0.012Z"/></g></g></svg>